<?xml version="1.0" standalone="no"?><!-- Generator: Gravit.io --><svg xmlns="http://www.w3.org/2000/svg" xmlns:xlink="http://www.w3.org/1999/xlink" style="isolation:isolate" viewBox="0 0 250 250" width="250" height="250"><defs><clipPath id="_clipPath_sflLsUJ0xFgAVRZ5bhyjnh8exN0L72aM"><rect width="250" height="250"/></clipPath></defs><g clip-path="url(#_clipPath_sflLsUJ0xFgAVRZ5bhyjnh8exN0L72aM)"><rect width="250" height="250" style="fill:rgb(0,0,0)" fill-opacity="0"/><defs><filter id="rvwGZoPGBUYCJRdYSIuOIOczQ2ZUS70m" x="-200%" y="-200%" width="400%" height="400%" filterUnits="objectBoundingBox" color-interpolation-filters="sRGB"><feOffset xmlns="http://www.w3.org/2000/svg" in="SourceGraphic" dx="0" dy="3"/><feGaussianBlur xmlns="http://www.w3.org/2000/svg" stdDeviation="2.146804531419514" result="pf_100_offsetBlur"/><feComposite xmlns="http://www.w3.org/2000/svg" in="SourceGraphic" in2="pf_100_offsetBlur" result="pf_100_inverse" operator="out"/><feFlood xmlns="http://www.w3.org/2000/svg" flood-color="#FFFFFF" flood-opacity="0.5" result="pf_100_color"/><feComposite xmlns="http://www.w3.org/2000/svg" in="pf_100_color" in2="pf_100_inverse" operator="in" result="pf_100_shadow"/><feComposite xmlns="http://www.w3.org/2000/svg" in="pf_100_shadow" in2="SourceGraphic" operator="over" result="_out_Ic8L41aDOHINxZWvUrJlB93QF5Bgoqop"/><feOffset xmlns="http://www.w3.org/2000/svg" in="_out_Ic8L41aDOHINxZWvUrJlB93QF5Bgoqop" dx="0" dy="-3"/><feGaussianBlur xmlns="http://www.w3.org/2000/svg" stdDeviation="2.146804531419514" result="pf_101_offsetBlur"/><feComposite xmlns="http://www.w3.org/2000/svg" in="_out_Ic8L41aDOHINxZWvUrJlB93QF5Bgoqop" in2="pf_101_offsetBlur" result="pf_101_inverse" operator="out"/><feFlood xmlns="http://www.w3.org/2000/svg" flood-color="#000000" flood-opacity="0.5" result="pf_101_color"/><feComposite xmlns="http://www.w3.org/2000/svg" in="pf_101_color" in2="pf_101_inverse" operator="in" result="pf_101_shadow"/><feComposite xmlns="http://www.w3.org/2000/svg" in="pf_101_shadow" in2="_out_Ic8L41aDOHINxZWvUrJlB93QF5Bgoqop" operator="over" result="_out_NmDopyiMGpvTlTpp8k1y8EpnidvpPVBB"/><feMerge><feMergeNode in="_out_NmDopyiMGpvTlTpp8k1y8EpnidvpPVBB"/></feMerge></filter></defs><g filter="url(#rvwGZoPGBUYCJRdYSIuOIOczQ2ZUS70m)"><path d="M 15 0 L 235 0 C 243.279 0 250 6.721 250 15 L 250 235 C 250 243.279 243.279 250 235 250 L 15 250 C 6.721 250 0 243.279 0 235 L 0 15 C 0 6.721 6.721 0 15 0 Z" style="stroke:none;fill:#E94F37;stroke-miterlimit:10;"/></g><g id="Group" filter="url(#cXv5nA776D01Be8FCpJeyuT5VsjofZcD)"><circle vector-effect="non-scaling-stroke" cx="105.01623347520226" cy="146.20121290613068" r="26.63098030437672" id="Ellipse" fill="rgb(255,255,255)"/><path d=" M 168.046 72.866 L 185.489 72.866 L 185.489 90.309 L 180.017 85.179 L 159.495 106.043 L 152.312 98.86 L 173.176 77.996 L 168.046 72.866 L 168.046 72.866 L 168.046 72.866 Z  M 142.051 95.782 L 124.608 95.782 L 124.608 78.338 L 129.738 83.469 L 150.26 62.605 L 157.443 69.787 L 136.579 90.651 L 142.051 95.782 L 142.051 95.782 Z  M 56.622 148.728 C 56.371 144.208 56.622 139.689 57.878 135.169 L 47.834 127.636 L 57.124 109.809 L 69.177 113.827 C 72.19 110.311 75.705 107.549 79.722 105.039 L 77.714 92.484 L 96.796 86.458 L 102.32 97.757 C 102.571 97.757 102.822 97.757 102.822 97.757 C 102.32 95.748 102.069 93.74 102.069 91.48 C 102.069 81.687 108.346 72.648 117.385 69.384 C 117.888 55.574 129.187 44.526 143.247 44.526 C 151.533 44.526 159.317 48.544 164.339 55.323 C 167.352 53.566 170.867 52.561 174.382 52.561 C 184.426 52.561 192.712 60.345 193.465 70.137 C 201.751 74.155 206.773 82.19 206.773 91.48 C 206.773 104.536 196.227 115.082 183.17 115.082 L 142.494 115.082 C 143.75 116.84 145.005 118.346 146.261 120.355 L 158.815 118.346 L 164.59 137.68 L 153.291 143.204 C 153.542 147.723 153.291 152.243 152.036 156.763 L 162.079 164.295 L 152.789 182.122 L 140.737 178.105 C 137.724 181.62 134.208 184.382 130.191 186.893 L 132.2 199.447 L 113.117 205.474 L 107.593 194.175 C 103.073 194.426 98.554 193.924 94.034 192.919 L 86.502 202.963 L 68.674 193.672 L 72.692 181.62 C 69.177 178.607 66.415 175.092 63.904 171.075 L 51.349 173.083 L 45.323 153.75 L 56.622 148.728 L 56.622 148.728 L 56.622 148.728 Z  M 58.337 166.551 L 69.089 164.915 L 70.024 166.317 C 72.361 170.524 75.399 174.264 79.139 177.302 L 80.307 178.237 L 76.802 188.521 L 86.384 193.429 L 92.929 184.548 L 94.565 185.015 C 99.239 186.184 103.914 186.651 108.822 186.184 L 110.458 185.95 L 115.132 196 L 125.416 192.728 L 123.78 181.977 L 125.182 181.275 C 129.389 178.938 132.895 175.9 136.167 172.16 L 137.102 170.992 L 147.386 174.497 L 152.294 164.915 L 143.413 158.371 L 143.88 156.734 C 145.049 152.06 145.516 147.386 145.049 142.477 L 144.815 140.841 L 154.865 135.933 L 151.593 125.649 L 140.842 127.285 L 140.141 125.883 C 138.271 122.845 136.167 119.806 133.596 117.469 L 124.481 117.469 C 116.067 117.469 108.822 112.794 105.082 105.783 C 103.914 105.783 102.745 105.783 101.576 106.016 L 99.94 106.25 L 95.032 96.434 L 84.748 99.706 L 86.151 110.223 L 84.748 110.925 C 80.541 113.262 77.035 116.3 73.763 120.04 L 72.828 121.208 L 62.544 117.703 L 57.636 127.285 L 66.518 133.83 L 66.05 135.466 C 64.882 140.14 64.414 144.815 64.882 149.723 L 65.115 151.359 L 55.299 156.267 L 58.337 166.551 Z " fill-rule="evenodd" id="Compound Shape" fill="rgb(255,255,255)" vector-effect="non-scaling-stroke" stroke-width="0.366" stroke="rgb(255,255,255)" stroke-linejoin="miter" stroke-linecap="butt" stroke-miterlimit="4"/></g><defs><filter id="cXv5nA776D01Be8FCpJeyuT5VsjofZcD" x="-200%" y="-200%" width="400%" height="400%" filterUnits="objectBoundingBox" color-interpolation-filters="sRGB"><feGaussianBlur xmlns="http://www.w3.org/2000/svg" in="SourceGraphic" stdDeviation="2.146804531419514"/><feOffset xmlns="http://www.w3.org/2000/svg" dx="-5" dy="5" result="pf_100_offsetBlur"/><feFlood xmlns="http://www.w3.org/2000/svg" flood-color="#000000" flood-opacity="0.5"/><feComposite xmlns="http://www.w3.org/2000/svg" in2="pf_100_offsetBlur" operator="in" result="pf_100_dropShadow"/><feBlend xmlns="http://www.w3.org/2000/svg" in="SourceGraphic" in2="pf_100_dropShadow" mode="normal"/></filter></defs></g></svg>